<svg width="19" height="25" viewBox="0 0 19 25" fill="none" xmlns="http://www.w3.org/2000/svg">
<path d="M16.9236 0.5H1.17365C0.554895 0.5 0.048645 1.00625 0.048645 1.625V3.875C0.048645 4.49375 0.554895 5 1.17365 5H16.9236C17.5424 5 18.0486 4.49375 18.0486 3.875V1.625C18.0486 1.00625 17.5424 0.5 16.9236 0.5ZM1.54865 23C1.54865 23.825 2.22364 24.5 3.04865 24.5H15.0486C15.8736 24.5 16.5486 23.825 16.5486 23V6.5H1.54865V23ZM4.54865 14.375C4.54865 14.1687 4.71739 14 4.92365 14H7.54865V11.375C7.54865 11.1687 7.71739 11 7.92365 11H10.1736C10.3799 11 10.5486 11.1687 10.5486 11.375V14H13.1736C13.3799 14 13.5486 14.1687 13.5486 14.375V16.625C13.5486 16.8312 13.3799 17 13.1736 17H10.5486V19.625C10.5486 19.8312 10.3799 20 10.1736 20H7.92365C7.71739 20 7.54865 19.8312 7.54865 19.625V17H4.92365C4.71739 17 4.54865 16.8312 4.54865 16.625V14.375Z" fill="#EF233C"/>
</svg>
