<svg width="28" height="30" viewBox="0 0 28 30" fill="none" xmlns="http://www.w3.org/2000/svg">
<path fill-rule="evenodd" clip-rule="evenodd" d="M14.7674 0.679936C14.316 0.328856 13.684 0.328856 13.2326 0.679936L1.23257 10.0133C0.928091 10.2501 0.75 10.6142 0.75 11V25.6666C0.75 26.7054 1.16265 27.7016 1.89716 28.4361C2.63168 29.1707 3.6279 29.5833 4.66667 29.5833H9.98989C9.99325 29.5833 9.99663 29.5833 10 29.5833C10.0034 29.5833 10.0067 29.5833 10.0101 29.5833H17.9899C17.9933 29.5833 17.9966 29.5833 18 29.5833C18.0034 29.5833 18.0067 29.5833 18.0101 29.5833H23.3333C24.3721 29.5833 25.3683 29.1706 26.1028 28.4361C26.8374 27.7016 27.25 26.7054 27.25 25.6666V11C27.25 10.6142 27.0719 10.2501 26.7674 10.0133L14.7674 0.679936ZM19.25 27.0833H23.3333C23.7091 27.0833 24.0694 26.934 24.3351 26.6684C24.6007 26.4027 24.75 26.0424 24.75 25.6666V11.6113L14 3.2502L3.25 11.6113V25.6666C3.25 26.0424 3.39926 26.4027 3.66493 26.6684C3.93061 26.934 4.29094 27.0833 4.66667 27.0833H8.75V15C8.75 14.3096 9.30964 13.75 10 13.75H18C18.6904 13.75 19.25 14.3096 19.25 15V27.0833ZM11.25 27.0833H16.75V16.25H11.25V27.0833Z" fill="#AFAFAF"/>
</svg>
