<svg width="96" height="96" viewBox="0 0 96 96" fill="none" xmlns="http://www.w3.org/2000/svg">
<circle cx="48" cy="48" r="48" fill="#EF233C"/>
<path d="M61.3333 46.1429H35.6667C33.6416 46.1429 32 47.55 32 49.2857V60.2857C32 62.0215 33.6416 63.4286 35.6667 63.4286H61.3333C63.3584 63.4286 65 62.0215 65 60.2857V49.2857C65 47.55 63.3584 46.1429 61.3333 46.1429Z" stroke="white" stroke-width="4" stroke-linecap="round" stroke-linejoin="round"/>
<path d="M39.3334 46.1429V39.8571C39.3334 37.7733 40.2991 35.7748 42.0182 34.3013C43.7373 32.8278 46.0689 32 48.5 32C50.9312 32 53.2628 32.8278 54.9819 34.3013C56.7009 35.7748 57.6667 37.7733 57.6667 39.8571V46.1429" stroke="white" stroke-width="4" stroke-linecap="round" stroke-linejoin="round"/>
</svg>
